<svg xmlns="http://www.w3.org/2000/svg" width="72" height="72" viewBox="0 0 72 72">
  <!-- Emoji-sized custom palette icon, no brush, transparent background -->

  <!-- Palette base -->
  <path
    d="M18 18
       C18 11, 27 6, 37 6
       C50 6, 62 14, 66 26
       C69 35, 66 44, 59 49
       C54 53, 48 54, 43 53
       C40 52, 38 49, 36 47
       C33 45, 30 45, 27 46
       C23 47, 20 50, 19 54
       C16 54, 13 52, 10 48
       C7 44, 6 39, 6 33
       C6 25, 11 20, 18 18 Z"
    fill="#A02B93"
    stroke="#000000"
    stroke-width="3"
    stroke-linejoin="round"
  />

  <!-- Thumb hole -->
  <circle
    cx="26"
    cy="48"
    r="6"
    fill="#ffffff"
    stroke="#000000"
    stroke-width="2"
  />

  <!-- Paint spots -->
  <circle cx="34" cy="19" r="4.5" fill="#FFD85C" stroke="#000000" stroke-width="2"/>
  <circle cx="46" cy="22" r="4.5" fill="#4EA72E" stroke="#000000" stroke-width="2"/>
  <circle cx="53" cy="31" r="4.5" fill="#FF7A9E" stroke="#000000" stroke-width="2"/>
  <circle cx="40" cy="34" r="4.5" fill="#4DA6FF" stroke="#000000" stroke-width="2"/>
</svg>
