<?xml version="1.0" encoding="UTF-8"?>
<svg version="1.1" xmlns="http://www.w3.org/2000/svg" width="512" height="512">
<path d="M0 0 C5.17282154 2.06766737 9.94379649 5.61201591 12.40234375 10.7578125 C13.93451357 16.50595289 14.81238642 23.56466625 11.95676231 28.9774313 C7.74928221 35.38318336 2.76267024 40.64347807 -2.67724609 46.01782227 C-3.64428134 46.98400934 -4.61065261 47.95086135 -5.57641602 48.9183197 C-8.17674496 51.5195026 -10.78615907 54.11138899 -13.39741468 56.7015965 C-16.13344666 59.41876078 -18.86087645 62.14453312 -21.58926392 64.86936951 C-26.74670602 70.01752061 -31.91174117 75.15798218 -37.07960856 80.29566568 C-42.96709873 86.14951972 -48.84598173 92.01198575 -54.72418857 97.87515938 C-66.80663284 109.92632143 -78.8997405 121.9667264 -91 134 C-87.79257375 137.241782 -84.57668309 140.23277664 -81 143.0625 C-74.96541911 147.94686547 -69.30292371 153.17453658 -63.63623047 158.47705078 C-61.49629714 160.46882997 -59.33486096 162.43635253 -57.17236328 164.40356445 C-50.44349128 170.53046889 -44.01351908 176.74426547 -38.07421875 183.64453125 C-35.98579552 186.01613052 -33.84509917 188.32862402 -31.68823242 190.63769531 C-25.85209173 196.89037767 -20.33965555 203.3142128 -15 210 C-14.091057 211.10646653 -13.1808344 212.21188276 -12.26953125 213.31640625 C-6.3286733 220.56409395 -0.75363128 228.01217164 4.625 235.6875 C5.22916748 236.54915771 5.83333496 237.41081543 6.45581055 238.29858398 C12.26474851 246.67451296 14.69766304 252.49370799 13 263 C10.63163913 268.16733281 7.42581083 272.48982888 4 277 C3.06016544 278.289969 2.12271235 279.58167603 1.1875 280.875 C-7.84407716 293.24694034 -17.42104791 305.32729085 -27.8046875 316.59375 C-29.67532655 318.64413016 -31.50594027 320.71929252 -33.328125 322.8125 C-76.32294134 372.04757597 -132.49293828 415.70074703 -196.9375 431.375 C-197.9186377 431.61371826 -198.89977539 431.85243652 -199.91064453 432.09838867 C-214.1895524 435.38903547 -228.10102728 436.38020345 -242.6875 436.3125 C-243.525159 436.31034485 -244.36281799 436.3081897 -245.2258606 436.30596924 C-257.71000565 436.25446736 -269.79213423 435.82598889 -282 433 C-283.33611328 432.70198486 -283.33611328 432.70198486 -284.69921875 432.39794922 C-308.7738217 426.91711789 -334.97091295 418.26352588 -355.23510742 403.80932617 C-356.95804677 402.83720493 -356.95804677 402.83720493 -358.83642101 403.19681835 C-361.71713671 404.26622141 -363.21937239 405.8596912 -365.38215637 408.0415802 C-366.25261093 408.91224625 -367.12306549 409.78291229 -368.01989746 410.67996216 C-368.97669028 411.65215697 -369.93335089 412.62448192 -370.88989258 413.59692383 C-371.90307437 414.61586354 -372.91694164 415.63412203 -373.93144226 416.65174866 C-376.1150718 418.84486366 -378.29395237 421.04255414 -380.46933937 423.24384499 C-383.91206815 426.72714237 -387.36621112 430.19896781 -390.82218933 433.66911316 C-398.78437347 441.66744202 -406.73152425 449.68065448 -414.67848969 457.69409943 C-421.95434385 465.03054078 -429.23335736 472.36377133 -436.52463454 479.68488902 C-439.95662264 483.1317914 -443.38116834 486.58586911 -446.80013812 490.04568255 C-448.93390172 492.20190119 -451.07393166 494.35181733 -453.21566963 496.50011253 C-454.20391109 497.49394773 -455.18956714 498.4903619 -456.17235184 499.48959351 C-467.74976157 511.25451399 -467.74976157 511.25451399 -475.4296875 512.6015625 C-483.57865086 512.65699762 -489.06398008 511.83165034 -495 506 C-499.56865899 500.65132606 -499.52241313 495.58927976 -499.7265625 488.6953125 C-497.87792771 479.29311618 -489.88664473 472.46694815 -483.32275391 465.98217773 C-482.35571866 465.01599066 -481.38934739 464.04913865 -480.42358398 463.0816803 C-477.82325504 460.4804974 -475.21384093 457.88861101 -472.60258532 455.2984035 C-469.86655334 452.58123922 -467.13912355 449.85546688 -464.41073608 447.13063049 C-459.25329398 441.98247939 -454.08825883 436.84201782 -448.92039144 431.70433432 C-443.03290127 425.85048028 -437.15401827 419.98801425 -431.27581143 414.12484062 C-419.19336716 402.07367857 -407.1002595 390.0332736 -395 378 C-398.20742625 374.758218 -401.42331691 371.76722336 -405 368.9375 C-411.03458089 364.05313453 -416.69707629 358.82546342 -422.36376953 353.52294922 C-424.50370286 351.53117003 -426.66513904 349.56364747 -428.82763672 347.59643555 C-435.55650872 341.46953111 -441.98648092 335.25573453 -447.92578125 328.35546875 C-450.01420448 325.98386948 -452.15490083 323.67137598 -454.31176758 321.36230469 C-460.14790827 315.10962233 -465.66034445 308.6857872 -471 302 C-471.908943 300.89353347 -472.8191656 299.78811724 -473.73046875 298.68359375 C-479.6713267 291.43590605 -485.24636872 283.98782836 -490.625 276.3125 C-491.22916748 275.45084229 -491.83333496 274.58918457 -492.45581055 273.70141602 C-497.72397543 266.10522971 -500.5939265 260.61905573 -499.45751953 251.00585938 C-497.91724758 244.25299152 -493.06377869 238.44766008 -489 233 C-488.5565625 232.401875 -488.113125 231.80375 -487.65625 231.1875 C-485.01638661 227.66768214 -482.28161164 224.23417168 -479.49462891 220.83007812 C-477.89417022 218.87041816 -476.31144374 216.89728072 -474.73046875 214.921875 C-469.38382893 208.26135588 -463.98629125 201.68957917 -458.1953125 195.40625 C-456.32467345 193.35586984 -454.49405973 191.28070748 -452.671875 189.1875 C-441.48935061 176.38194611 -429.57902046 164.43111366 -417 153 C-416.37657715 152.4318457 -415.7531543 151.86369141 -415.11083984 151.27832031 C-368.36505167 108.96478119 -308.54923321 75.46352035 -244.1875 75.625 C-242.90333694 75.62631424 -242.90333694 75.62631424 -241.5932312 75.62765503 C-203.99509206 75.75408606 -169.50217375 86.57093128 -136.59692383 104.50878906 C-135.78634521 104.95061523 -134.9757666 105.39244141 -134.140625 105.84765625 C-133.43454102 106.23961182 -132.72845703 106.63156738 -132.00097656 107.03540039 C-129.85424039 108.07026552 -128.3835724 108.77864736 -126 109 C-123.74613926 107.48435047 -123.74613926 107.48435047 -121.57987976 105.16096497 C-120.26157669 103.84646866 -120.26157669 103.84646866 -118.91664124 102.50541687 C-117.95031039 101.51660349 -116.98420784 100.52756697 -116.01831055 99.53833008 C-114.99570603 98.50940616 -113.97197597 97.48159981 -112.94720459 96.45483398 C-110.73926552 94.23785228 -108.53943838 92.01322152 -106.34546471 89.7824192 C-102.87371836 86.2526863 -99.38412936 82.74096544 -95.89179993 79.23161316 C-89.73631801 73.04152108 -83.59618713 66.83637745 -77.45935059 60.62780762 C-68.23368033 51.29448886 -58.99651775 41.97258531 -49.74439842 32.66548461 C-46.27817849 29.17751266 -42.82017936 25.68165046 -39.36854017 22.17925131 C-37.2139447 19.99580506 -35.05313696 17.81858504 -32.89073181 15.64287567 C-31.89279009 14.63615812 -30.89745854 13.62684502 -29.90502357 12.61469841 C-20.55223719 3.08085921 -13.9517915 -2.06751661 0 0 Z M-350 153 C-350.57024902 153.39155273 -351.14049805 153.78310547 -351.72802734 154.18652344 C-363.83988304 162.56256853 -375.52844674 171.46704037 -386.3046875 181.515625 C-388.37182533 183.42098683 -390.46304478 185.2553727 -392.59765625 187.08203125 C-397.63158647 191.47134399 -402.33562554 196.18543559 -407.0456543 200.9152832 C-408.5599258 202.43491668 -410.0794743 203.94912517 -411.59960938 205.46289062 C-416.94368299 210.80298264 -422.10820162 216.23854857 -427 222 C-427.94900247 223.08336318 -428.89947104 224.16544426 -429.8515625 225.24609375 C-435.48525515 231.70393577 -440.92421287 238.29886179 -446.1875 245.0625 C-446.75227051 245.77656006 -447.31704102 246.49062012 -447.89892578 247.22631836 C-451.93020154 252.09482059 -451.93020154 252.09482059 -453 258 C-451.33493718 260.79889323 -449.2647623 263.17901782 -447.125 265.625 C-446.52582764 266.33358154 -445.92665527 267.04216309 -445.30932617 267.7722168 C-444.10313253 269.19865923 -442.89151588 270.62053501 -441.67431641 272.03759766 C-439.49964937 274.58644187 -437.40680544 277.19744834 -435.3125 279.8125 C-431.54395302 284.41773356 -427.59211696 288.82873534 -423.5546875 293.19921875 C-421.61109784 295.33003494 -419.72469913 297.48397369 -417.84765625 299.671875 C-413.31752341 304.86428293 -408.44348041 309.702334 -403.5625 314.5625 C-402.65951172 315.46935547 -401.75652344 316.37621094 -400.82617188 317.31054688 C-395.71298019 322.4163335 -390.51012717 327.32633038 -385 332 C-383.87369381 332.97134941 -382.74739156 333.94270337 -381.62109375 334.9140625 C-376.23769249 339.51037337 -370.87658773 344.03671991 -365 348 C-357.86683411 341.99297295 -351.22963449 335.55733432 -344.59960938 329.00463867 C-343.19168777 327.61849074 -341.7775268 326.23865371 -340.35742188 324.86499023 C-338.29667094 322.8708298 -336.25601685 320.85795565 -334.21875 318.83984375 C-333.57933472 318.22825912 -332.93991943 317.6166745 -332.28112793 316.98655701 C-330.68491565 315.38268399 -329.24974273 313.88620972 -328 312 C-328.03213998 307.70127821 -330.21459982 304.48451685 -332.25 300.75 C-343.57162 279.14715667 -345.87870081 251.47684107 -339.328125 228.04296875 C-330.98436967 201.51624507 -313.65467371 179.96772488 -289.015625 166.97265625 C-283.19806842 164.04017267 -277.24480928 161.84308607 -271 160 C-270.01 159.68160156 -269.02 159.36320312 -268 159.03515625 C-244.32593941 152.61356732 -218.87056422 156.8512463 -197 167 C-195.76943984 167.74342267 -194.54285574 168.49346607 -193.3203125 169.25 C-190.3223466 171.22646707 -190.3223466 171.22646707 -187.98150635 170.77711487 C-185.77709022 169.91257837 -184.6327978 168.99597232 -182.97558594 167.31616211 C-182.41530701 166.75565659 -181.85502808 166.19515106 -181.277771 165.61766052 C-180.68595032 165.01035599 -180.09412964 164.40305145 -179.484375 163.77734375 C-178.5606308 162.84723228 -178.5606308 162.84723228 -177.6182251 161.89833069 C-175.65499365 159.91832095 -173.70245564 157.92813081 -171.75 155.9375 C-170.41996252 154.59241465 -169.08924121 153.24800512 -167.7578125 151.90429688 C-164.49722463 148.61065094 -161.24618812 145.30783661 -158 142 C-158.66367657 139.00270798 -158.66367657 139.00270798 -160.5402832 137.94433594 C-161.20374756 137.62754883 -161.86721191 137.31076172 -162.55078125 136.984375 C-163.67685791 136.44345215 -163.67685791 136.44345215 -164.82568359 135.89160156 C-165.64633301 135.51487305 -166.46698242 135.13814453 -167.3125 134.75 C-168.16408691 134.35522461 -169.01567383 133.96044922 -169.89306641 133.55371094 C-231.42497481 105.62257538 -294.79392454 115.05490573 -350 153 Z M-125.43408203 167.2253418 C-126.15798126 167.92995041 -126.88188049 168.63455902 -127.62771606 169.36051941 C-130.92793755 172.60334003 -134.22420651 175.8499989 -137.51123047 179.10620117 C-139.25109216 180.82444866 -140.99719013 182.53640468 -142.74951172 184.24194336 C-145.26681764 186.69257982 -147.76409173 189.16211413 -150.2578125 191.63671875 C-151.04729279 192.39836838 -151.83677307 193.16001801 -152.650177 193.94474792 C-153.36777191 194.66511734 -154.08536682 195.38548676 -154.82470703 196.12768555 C-155.46344757 196.75611862 -156.10218811 197.3845517 -156.76028442 198.0320282 C-158.25979168 199.9755297 -158.25979168 199.9755297 -157.78927612 202.55744934 C-156.7808978 205.67804941 -155.31948428 208.37033755 -153.75 211.25 C-142.42838 232.85284333 -140.12129919 260.52315893 -146.671875 283.95703125 C-154.96643986 310.32736707 -172.24179968 332.0338552 -196.7734375 344.95703125 C-218.91652496 356.01824223 -246.32480247 359.35682192 -270.23046875 352.2734375 C-285.77725208 347.02136355 -285.77725208 347.02136355 -292.6796875 342.75 C-295.67775258 340.77291236 -295.67775258 340.77291236 -298.01849365 341.22486877 C-300.21165294 342.08279499 -301.36607763 342.99162658 -303.02441406 344.65209961 C-303.58469299 345.20614975 -304.14497192 345.76019989 -304.722229 346.33103943 C-305.31404968 346.93206985 -305.90587036 347.53310028 -306.515625 348.15234375 C-307.13145447 348.76767471 -307.74728394 349.38300568 -308.3817749 350.01698303 C-309.67967372 351.31721976 -310.97388682 352.62114459 -312.26464844 353.9284668 C-314.2477555 355.93522873 -316.24390935 357.92827845 -318.2421875 359.91992188 C-319.50079541 361.18410443 -320.75863497 362.44905251 -322.015625 363.71484375 C-322.6155426 364.31384995 -323.21546021 364.91285614 -323.83355713 365.53001404 C-326.9506912 368.26287003 -326.9506912 368.26287003 -328 372 C-285.1210002 394.51746358 -240.77267378 402.36808877 -193.859375 387.96264648 C-158.05737805 376.21511624 -127.03735029 354.69957049 -99 330 C-98.071875 329.1853125 -97.14375 328.370625 -96.1875 327.53125 C-89.30031497 321.34843617 -82.74261975 314.84387137 -76.1875 308.3125 C-74.84353149 306.97554077 -74.84353149 306.97554077 -73.47241211 305.61157227 C-68.44058335 300.56753831 -63.62202476 295.4204076 -59 290 C-58.05077375 288.91683288 -57.10030631 287.83475187 -56.1484375 286.75390625 C-50.51474485 280.29606423 -45.07578713 273.70113821 -39.8125 266.9375 C-39.24772949 266.22343994 -38.68295898 265.50937988 -38.10107422 264.77368164 C-34.06979846 259.90517941 -34.06979846 259.90517941 -33 254 C-34.66506282 251.20110677 -36.7352377 248.82098218 -38.875 246.375 C-39.77375854 245.31212769 -39.77375854 245.31212769 -40.69067383 244.2277832 C-41.89686747 242.80134077 -43.10848412 241.37946499 -44.32568359 239.96240234 C-46.50035063 237.41355813 -48.59319456 234.80255166 -50.6875 232.1875 C-54.45604698 227.58226644 -58.40788304 223.17126466 -62.4453125 218.80078125 C-64.38206462 216.67746127 -66.26222594 214.53160481 -68.1328125 212.3515625 C-72.3337787 207.53807344 -76.80641706 203.00750625 -81.32324219 198.49145508 C-82.73919947 197.07331716 -84.14698289 195.64703335 -85.5546875 194.22070312 C-90.96673177 188.79735236 -96.52380507 183.75955464 -102.52539062 178.99487305 C-105.0119642 176.99035522 -107.38670735 174.89775404 -109.75 172.75 C-117.22893176 164.74555284 -117.22893176 164.74555284 -125.43408203 167.2253418 Z M-286.1875 214.6875 C-298.30859734 227.43083027 -302.56788055 241.72447861 -302.48632812 258.87524414 C-302.27116846 266.4524067 -300.96865184 272.97595771 -298 280 C-295.04488371 278.66778612 -292.96114403 277.21196898 -290.67169189 274.92565918 C-289.71685158 273.97927834 -289.71685158 273.97927834 -288.74272156 273.01377869 C-287.71233513 271.97731956 -287.71233513 271.97731956 -286.66113281 270.91992188 C-285.92903091 270.19132462 -285.19692902 269.46272736 -284.44264221 268.71205139 C-282.02441382 266.30262525 -279.61357368 263.88595735 -277.203125 261.46875 C-275.52761626 259.79458804 -273.85181068 258.12072311 -272.17572021 256.44714355 C-268.66547771 252.93985003 -265.15887981 249.42896281 -261.65478516 245.91552734 C-257.15310248 241.40243278 -252.6424786 236.89839828 -248.12910843 232.39699554 C-244.66838575 228.94348249 -241.21241936 225.48524158 -237.75789642 222.02552795 C-236.09590415 220.36219761 -234.4324142 218.70036241 -232.76743317 217.0400238 C-230.44719031 214.72483328 -228.13341076 212.40337515 -225.82128906 210.08007812 C-225.12626785 209.38910538 -224.43124664 208.69813263 -223.71516418 207.98622131 C-222.77724281 207.03984047 -222.77724281 207.03984047 -221.82037354 206.07434082 C-221.27249302 205.52570625 -220.7246125 204.97707169 -220.16012955 204.41181183 C-218.78837369 203.0470168 -218.78837369 203.0470168 -219 201 C-244.07227928 192.30558057 -266.52668243 196.55670714 -286.1875 214.6875 Z M-193.16372681 234.90975952 C-194.13968559 235.87725883 -194.13968559 235.87725883 -195.13536072 236.86430359 C-195.84817703 237.58116837 -196.56099335 238.29803314 -197.29541016 239.03662109 C-198.04672714 239.78443344 -198.79804413 240.53224579 -199.5721283 241.30271912 C-202.06617889 243.78793249 -204.55280233 246.28043214 -207.0390625 248.7734375 C-208.76226986 250.49529878 -210.48577411 252.21686299 -212.20956421 253.93814087 C-215.82591853 257.55154122 -219.43861662 261.16854848 -223.04882812 264.78808594 C-227.68733873 269.43799112 -232.33476784 274.07886223 -236.98496437 278.71707726 C-240.54691641 282.2718181 -244.10411049 285.83128931 -247.65986252 289.39223099 C-249.37209411 291.10580113 -251.08582465 292.81787479 -252.80104446 294.52845383 C-255.19335004 296.91570639 -257.57919371 299.30923111 -259.96337891 301.70458984 C-261.03867607 302.77381432 -261.03867607 302.77381432 -262.13569641 303.86463928 C-262.78069595 304.51527847 -263.4256955 305.16591766 -264.09024048 305.83627319 C-264.65546732 306.40225409 -265.22069416 306.96823498 -265.80304909 307.55136681 C-267.21232059 308.94377236 -267.21232059 308.94377236 -267 311 C-250.11122905 316.85658993 -234.87893 317.50292291 -218.1015625 310.54296875 C-202.55089388 302.80680489 -191.33806863 289.85437383 -185.7265625 273.5078125 C-181.79027837 259.92128341 -183.13227196 245.12548095 -188 232 C-190.73759832 232 -191.24545261 232.99404103 -193.16372681 234.90975952 Z " fill="#B6AAF9" transform="translate(499,0)"/>
</svg>
