<?xml version="1.0" encoding="UTF-8"?>
<svg version="1.1" xmlns="http://www.w3.org/2000/svg" width="512" height="512">
<path d="M0 0 C1.45033127 0.00031723 1.45033127 0.00031723 2.92996216 0.00064087 C18.51282228 0.03457434 33.3588179 1.03746506 48.625 4.375 C50.01549561 4.66383057 50.01549561 4.66383057 51.43408203 4.95849609 C95.82619307 14.26288358 137.07733695 35.72353857 171.71533203 64.77392578 C173.54129694 66.30482297 175.37740633 67.82275404 177.21484375 69.33984375 C188.85968102 79.04523068 199.99426744 89.64708889 209.625 101.375 C210.0698877 101.90609375 210.51477539 102.4371875 210.97314453 102.984375 C258.95065536 160.28191903 258.95065536 160.28191903 257.359375 183.171875 C250.89519959 211.36668265 226.16579872 240.17566129 206.87109375 260.9453125 C205.00245905 262.96668778 203.211462 265.02152343 201.4375 267.125 C193.18609586 276.5858298 184.13163753 285.52895323 174.265625 293.2890625 C171.50209213 295.47208995 168.85334902 297.76152976 166.1875 300.0625 C132.58129044 327.99549635 91.21857878 347.92311333 48.375 356.625 C47.63258057 356.77606201 46.89016113 356.92712402 46.12524414 357.08276367 C31.14171001 359.94514984 16.46884195 360.78081959 1.25 360.75 C0.28311249 360.74978851 -0.68377502 360.74957703 -1.67996216 360.74935913 C-17.26282228 360.71542566 -32.1088179 359.71253494 -47.375 356.375 C-48.30199707 356.18244629 -49.22899414 355.98989258 -50.18408203 355.79150391 C-94.57619307 346.48711642 -135.82733695 325.02646143 -170.46533203 295.97607422 C-172.29129694 294.44517703 -174.12740633 292.92724596 -175.96484375 291.41015625 C-187.60968102 281.70476932 -198.74426744 271.10291111 -208.375 259.375 C-208.8198877 258.84390625 -209.26477539 258.3128125 -209.72314453 257.765625 C-221.45760171 243.75165126 -231.80902362 229.21977144 -241.25 213.5625 C-241.86858887 212.53713135 -242.48717773 211.5117627 -243.12451172 210.45532227 C-255.53387826 189.57556447 -255.53387826 189.57556447 -255.375 180.8125 C-255.36645996 180.05855957 -255.35791992 179.30461914 -255.34912109 178.52783203 C-254.76962383 168.59856627 -249.49847325 160.62042356 -244.375 152.375 C-243.5268278 150.95551181 -242.68040912 149.53497407 -241.8359375 148.11328125 C-231.45498508 130.87543116 -219.31590919 114.54637651 -205.62109375 99.8046875 C-203.75245905 97.78331222 -201.961462 95.72847657 -200.1875 93.625 C-191.93609586 84.1641702 -182.88163753 75.22104677 -173.015625 67.4609375 C-170.25209213 65.27791005 -167.60334902 62.98847024 -164.9375 60.6875 C-131.33129044 32.75450365 -89.96857878 12.82688667 -47.125 4.125 C-46.38258057 3.97393799 -45.64016113 3.82287598 -44.87524414 3.66723633 C-29.89171001 0.80485016 -15.21884195 -0.03081959 0 0 Z M-38.375 44.375 C-39.60597412 44.62443359 -39.60597412 44.62443359 -40.86181641 44.87890625 C-83.48327638 53.53952276 -121.44668129 75.27300155 -152.87451172 104.97607422 C-155.0812799 107.03347442 -157.35608793 109.01163347 -159.625 111 C-164.60169646 115.47262592 -168.99847237 120.32132232 -173.375 125.375 C-174.29880422 126.41336129 -175.22331712 127.45109241 -176.1484375 128.48828125 C-187.21782361 141.00917902 -196.75260954 154.55606286 -205.75 168.625 C-206.32806396 169.50615479 -206.90612793 170.38730957 -207.50170898 171.29516602 C-210.48636752 176.0283546 -210.48636752 176.0283546 -211.5703125 181.4140625 C-209.81236554 185.76871542 -207.44019015 189.57702076 -204.875 193.5 C-204.05914429 194.76686646 -204.05914429 194.76686646 -203.22680664 196.05932617 C-198.88783319 202.73334489 -194.29610206 209.11562922 -189.375 215.375 C-188.50284355 216.51350962 -187.6318004 217.65287272 -186.76171875 218.79296875 C-181.47013209 225.68269194 -175.93990786 232.23164958 -169.99609375 238.56640625 C-167.54823922 241.18936811 -165.17747967 243.86501001 -162.8125 246.5625 C-158.31817486 251.55796228 -153.46048579 255.99096053 -148.375 260.375 C-147.88515625 260.80425781 -147.3953125 261.23351562 -146.890625 261.67578125 C-105.81900423 297.66530753 -54.64162986 319.9380905 0.375 319.6875 C1.20949677 319.68567719 2.04399353 319.68385437 2.90377808 319.68197632 C15.38735156 319.63612969 27.39952804 319.07230283 39.625 316.375 C40.44564941 316.20871094 41.26629883 316.04242188 42.11181641 315.87109375 C84.73327638 307.21047724 122.69668129 285.47699845 154.12451172 255.77392578 C156.3312799 253.71652558 158.60608793 251.73836653 160.875 249.75 C165.85169646 245.27737408 170.24847237 240.42867768 174.625 235.375 C175.54880422 234.33663871 176.47331712 233.29890759 177.3984375 232.26171875 C188.46782361 219.74082098 198.00260954 206.19393714 207 192.125 C207.57806396 191.24384521 208.15612793 190.36269043 208.75170898 189.45483398 C211.74626094 184.71152126 211.74626094 184.71152126 212.80078125 179.30859375 C211.12159936 175.11900704 208.89837097 171.46220934 206.4375 167.6875 C205.63880493 166.44661621 205.63880493 166.44661621 204.82397461 165.18066406 C195.16818939 150.36439029 184.51917212 136.45616689 172.625 123.375 C172.03122559 122.71951172 171.43745117 122.06402344 170.82568359 121.38867188 C162.09547823 111.73394088 162.09547823 111.73394088 152.5078125 102.953125 C151.15368373 101.8181291 149.83990799 100.63434716 148.5546875 99.421875 C109.23207509 62.36531145 54.64817167 40.81757322 0.875 41.0625 C-0.37674515 41.06523422 -0.37674515 41.06523422 -1.65377808 41.06802368 C-14.13735156 41.11387031 -26.14952804 41.67769717 -38.375 44.375 Z " fill="#B5ABFD" transform="translate(254.375,75.625)"/>
<path d="M0 0 C1.15242187 0.37382812 2.30484375 0.74765625 3.4921875 1.1328125 C15.41221783 5.36792916 25.40362901 11.85614094 35 20 C36.01320313 20.79470703 36.01320313 20.79470703 37.046875 21.60546875 C54.82643812 36.00691488 65.925116 59.6051885 69 82 C70.06749612 97.29919274 69.83300583 112.37462943 65 127 C64.62617188 128.15242187 64.25234375 129.30484375 63.8671875 130.4921875 C59.63207084 142.41221783 53.14385906 152.40362901 45 162 C44.47019531 162.67546875 43.94039062 163.3509375 43.39453125 164.046875 C28.99308512 181.82643812 5.3948115 192.925116 -17 196 C-32.29919274 197.06749612 -47.37462943 196.83300583 -62 192 C-63.15242188 191.62617188 -64.30484375 191.25234375 -65.4921875 190.8671875 C-77.41221783 186.63207084 -87.40362901 180.14385906 -97 172 C-97.67546875 171.47019531 -98.3509375 170.94039062 -99.046875 170.39453125 C-116.82643812 155.99308512 -127.925116 132.3948115 -131 110 C-132.06749612 94.70080726 -131.83300583 79.62537057 -127 65 C-126.62617188 63.84757812 -126.25234375 62.69515625 -125.8671875 61.5078125 C-121.63207084 49.58778217 -115.14385906 39.59637099 -107 30 C-106.20529297 28.98679687 -106.20529297 28.98679687 -105.39453125 27.953125 C-81.26337261 -1.83842887 -35.45135432 -11.71502638 0 0 Z M-77.0078125 58.2265625 C-88.59576607 72.42305973 -91.57490368 88.0868346 -90 106 C-87.71880915 121.58633561 -78.5532199 134.02502192 -66.5625 143.8125 C-52.3789753 154.25963691 -36.17891582 157.22156155 -18.88818359 154.69091797 C-3.37469285 151.63197482 9.21636954 141.87536417 18.47265625 129.30859375 C27.84818428 115.13739921 30.59519655 98.61728992 27.30859375 81.94921875 C23.02449388 65.54774855 12.1000332 52.22067022 -2.40234375 43.56640625 C-28.50776993 29.66825677 -57.62858235 36.73597654 -77.0078125 58.2265625 Z " fill="#B5ACFD" transform="translate(286,160)"/>
</svg>
